<svg version="1.1" id="Layer_1" xmlns="http://www.w3.org/2000/svg" xmlns:xlink="http://www.w3.org/1999/xlink" x="0px" y="0px"
	 width="100%" viewBox="0 0 512 512" enable-background="new 0 0 512 512" xml:space="preserve">
<path fill="#060606" opacity="1.000000" stroke="none" 
	d="
M235.000000,513.000000 
	C156.685654,513.000000 78.871307,513.000000 1.028483,513.000000 
	C1.028483,342.393951 1.028483,171.787918 1.028483,1.090937 
	C171.564377,1.090937 342.128815,1.090937 512.846619,1.090937 
	C512.846619,171.666565 512.846619,342.333252 512.846619,513.000000 
	C420.454559,513.000000 327.977264,513.000000 235.000000,513.000000 
M198.559998,322.193970 
	C218.184174,321.798706 237.952759,322.749268 257.395477,320.662994 
	C280.996735,318.130463 298.774261,305.591492 306.874969,282.346588 
	C313.185638,264.238220 312.675934,245.653732 307.273743,227.388397 
	C301.971069,209.459702 290.092834,197.045654 272.432281,191.189209 
	C263.567505,188.249542 254.024658,186.444290 244.699387,186.001404 
	C227.621353,185.190292 210.477219,185.770416 193.301392,185.770416 
	C193.301392,231.339096 193.301392,276.710968 193.301392,322.193176 
	C194.925232,322.193176 196.248856,322.193176 198.559998,322.193970 
M405.320801,240.004425 
	C388.400940,240.004425 371.481079,240.004425 354.245605,240.004425 
	C354.245605,221.597275 354.245605,203.815857 354.245605,185.816040 
	C343.526581,185.816040 333.131622,185.816040 322.515381,185.816040 
	C322.515381,231.373459 322.515381,276.623627 322.515381,322.183105 
	C333.038666,322.183105 343.448853,322.183105 354.325867,322.183105 
	C354.325867,303.814789 354.325867,285.575592 354.325867,267.215515 
	C372.552032,267.215515 390.313263,267.215515 408.558014,267.215515 
	C408.558014,285.644867 408.558014,303.866882 408.558014,322.210480 
	C419.621460,322.210480 430.198822,322.210480 440.666443,322.210480 
	C440.666443,276.545441 440.666443,231.163544 440.666443,185.876495 
	C429.608307,185.876495 418.891754,185.876495 408.001099,185.876495 
	C408.001099,202.732193 408.043457,219.219742 407.926758,235.706146 
	C407.916565,237.141235 406.858978,238.568893 405.320801,240.004425 
M106.960281,300.499939 
	C106.960281,292.880280 106.960281,285.260590 106.960281,276.995483 
	C117.812981,276.995483 128.233597,277.950287 138.424133,276.823822 
	C175.033096,272.776947 189.358627,242.186066 177.978409,213.220352 
	C170.673645,194.627747 154.509277,187.323624 135.964355,186.234741 
	C115.877495,185.055313 95.684334,185.682281 75.537346,185.550507 
	C74.933975,185.546555 74.328476,185.867599 73.767380,186.024948 
	C73.767380,231.496338 73.767380,276.737976 73.767380,322.221985 
	C84.924934,322.221985 95.827751,322.221985 106.960480,322.221985 
	C106.960480,315.138763 106.960480,308.319305 106.960281,300.499939 
z"/>
<path fill="#FEFEFE" opacity="1.000000" stroke="none" 
	d="
M198.066254,322.193573 
	C196.248856,322.193176 194.925232,322.193176 193.301392,322.193176 
	C193.301392,276.710968 193.301392,231.339096 193.301392,185.770416 
	C210.477219,185.770416 227.621353,185.190292 244.699387,186.001404 
	C254.024658,186.444290 263.567505,188.249542 272.432281,191.189209 
	C290.092834,197.045654 301.971069,209.459702 307.273743,227.388397 
	C312.675934,245.653732 313.185638,264.238220 306.874969,282.346588 
	C298.774261,305.591492 280.996735,318.130463 257.395477,320.662994 
	C237.952759,322.749268 218.184174,321.798706 198.066254,322.193573 
M253.226028,293.873779 
	C267.250854,289.782990 275.603394,280.236053 277.770660,266.109100 
	C278.959198,258.361511 278.793793,250.185776 277.824066,242.378830 
	C276.343048,230.455750 270.031494,221.409042 258.553711,216.586975 
	C247.928314,212.123016 236.848557,213.470291 225.816315,213.463943 
	C225.816315,241.203903 225.816315,268.389008 225.816315,296.500397 
	C234.972702,295.649078 243.698563,294.837769 253.226028,293.873779 
z"/>
<path fill="#FDFDFD" opacity="1.000000" stroke="none" 
	d="
M405.804382,240.002197 
	C406.858978,238.568893 407.916565,237.141235 407.926758,235.706146 
	C408.043457,219.219742 408.001099,202.732193 408.001099,185.876495 
	C418.891754,185.876495 429.608307,185.876495 440.666443,185.876495 
	C440.666443,231.163544 440.666443,276.545441 440.666443,322.210480 
	C430.198822,322.210480 419.621460,322.210480 408.558014,322.210480 
	C408.558014,303.866882 408.558014,285.644867 408.558014,267.215515 
	C390.313263,267.215515 372.552032,267.215515 354.325867,267.215515 
	C354.325867,285.575592 354.325867,303.814789 354.325867,322.183105 
	C343.448853,322.183105 333.038666,322.183105 322.515381,322.183105 
	C322.515381,276.623627 322.515381,231.373459 322.515381,185.816040 
	C333.131622,185.816040 343.526581,185.816040 354.245605,185.816040 
	C354.245605,203.815857 354.245605,221.597275 354.245605,240.004425 
	C371.481079,240.004425 388.400940,240.004425 405.804382,240.002197 
z"/>
<path fill="#FEFEFE" opacity="1.000000" stroke="none" 
	d="
M106.960381,300.999908 
	C106.960480,308.319305 106.960480,315.138763 106.960480,322.221985 
	C95.827751,322.221985 84.924934,322.221985 73.767380,322.221985 
	C73.767380,276.737976 73.767380,231.496338 73.767380,186.024948 
	C74.328476,185.867599 74.933975,185.546555 75.537346,185.550507 
	C95.684334,185.682281 115.877495,185.055313 135.964355,186.234741 
	C154.509277,187.323624 170.673645,194.627747 177.978409,213.220352 
	C189.358627,242.186066 175.033096,272.776947 138.424133,276.823822 
	C128.233597,277.950287 117.812981,276.995483 106.960281,276.995483 
	C106.960281,285.260590 106.960281,292.880280 106.960381,300.999908 
M148.010483,227.592484 
	C146.949188,219.883133 142.420456,214.939560 134.925385,214.039505 
	C125.632233,212.923523 116.202499,212.944901 106.802849,212.473526 
	C106.802849,225.842896 106.802849,238.232468 106.802849,251.009033 
	C114.097862,251.009033 121.211380,251.027283 128.324783,251.005219 
	C142.923294,250.959946 149.968185,242.876999 148.010483,227.592484 
z"/>
<path fill="#0A0A0A" opacity="1.000000" stroke="none" 
	d="
M252.825226,293.950134 
	C243.698563,294.837769 234.972702,295.649078 225.816315,296.500397 
	C225.816315,268.389008 225.816315,241.203903 225.816315,213.463943 
	C236.848557,213.470291 247.928314,212.123016 258.553711,216.586975 
	C270.031494,221.409042 276.343048,230.455750 277.824066,242.378830 
	C278.793793,250.185776 278.959198,258.361511 277.770660,266.109100 
	C275.603394,280.236053 267.250854,289.782990 252.825226,293.950134 
z"/>
<path fill="#070707" opacity="1.000000" stroke="none" 
	d="
M148.028351,227.999557 
	C149.968185,242.876999 142.923294,250.959946 128.324783,251.005219 
	C121.211380,251.027283 114.097862,251.009033 106.802849,251.009033 
	C106.802849,238.232468 106.802849,225.842896 106.802849,212.473526 
	C116.202499,212.944901 125.632233,212.923523 134.925385,214.039505 
	C142.420456,214.939560 146.949188,219.883133 148.028351,227.999557 
z"/>
</svg>